<svg xmlns="http://www.w3.org/2000/svg" xmlns:xlink="http://www.w3.org/1999/xlink" viewBox="0 0 2549.04 1650.53"><defs><style>.cls-1,.cls-10,.cls-11,.cls-12,.cls-13,.cls-14,.cls-15,.cls-17,.cls-6,.cls-7,.cls-8,.cls-9{fill:none;}.cls-2{fill:#f7f0f0;}.cls-3{isolation:isolate;}.cls-4{clip-path:url(#clip-path);}.cls-5{fill:url(#linear-gradient);}.cls-10,.cls-11,.cls-12,.cls-13,.cls-14,.cls-15,.cls-17,.cls-6,.cls-7,.cls-8,.cls-9{stroke-miterlimit:10;stroke-width:2px;}.cls-6{stroke:url(#linear-gradient-2);}.cls-7{stroke:url(#linear-gradient-3);}.cls-8{stroke:url(#linear-gradient-4);}.cls-9{stroke:url(#linear-gradient-5);}.cls-10{stroke:url(#linear-gradient-6);}.cls-11{stroke:url(#linear-gradient-7);}.cls-12{stroke:url(#linear-gradient-8);}.cls-13{stroke:url(#linear-gradient-9);}.cls-14{stroke:url(#linear-gradient-10);}.cls-15{stroke:url(#linear-gradient-11);}.cls-16{fill:url(#_10_dpi_20_2);}.cls-17{stroke:url(#linear-gradient-12);}.cls-18,.cls-22,.cls-26,.cls-30,.cls-34,.cls-38,.cls-42,.cls-46,.cls-50,.cls-52,.cls-54,.cls-56,.cls-58,.cls-60,.cls-62,.cls-64,.cls-66,.cls-68,.cls-70{mix-blend-mode:multiply;}.cls-18{fill:url(#radial-gradient);}.cls-19{fill:url(#linear-gradient-13);}.cls-20{fill:url(#linear-gradient-14);}.cls-21{fill:url(#linear-gradient-15);}.cls-22{fill:url(#radial-gradient-2);}.cls-23{fill:url(#linear-gradient-16);}.cls-24{fill:url(#linear-gradient-17);}.cls-25{fill:url(#radial-gradient-3);}.cls-26{fill:url(#radial-gradient-4);}.cls-27{fill:url(#linear-gradient-18);}.cls-28{fill:url(#linear-gradient-19);}.cls-29{fill:url(#linear-gradient-20);}.cls-30{fill:url(#radial-gradient-5);}.cls-31{fill:url(#linear-gradient-21);}.cls-32{fill:url(#linear-gradient-22);}.cls-33{fill:url(#radial-gradient-6);}.cls-34{fill:url(#radial-gradient-7);}.cls-35{fill:url(#linear-gradient-23);}.cls-36{fill:url(#linear-gradient-24);}.cls-37{fill:url(#linear-gradient-25);}.cls-38{fill:url(#radial-gradient-8);}.cls-39{fill:url(#linear-gradient-26);}.cls-40{fill:url(#radial-gradient-9);}.cls-41{fill:url(#linear-gradient-27);}.cls-42{fill:url(#radial-gradient-10);}.cls-43{fill:url(#linear-gradient-28);}.cls-44{fill:url(#linear-gradient-29);}.cls-45{fill:url(#linear-gradient-30);}.cls-46{fill:url(#radial-gradient-11);}.cls-47{fill:url(#linear-gradient-31);}.cls-48{fill:url(#linear-gradient-32);}.cls-49{fill:url(#linear-gradient-33);}.cls-50,.cls-52,.cls-54,.cls-56,.cls-58,.cls-60,.cls-62,.cls-64,.cls-66,.cls-68{opacity:0.35;}.cls-50{fill:url(#radial-gradient-12);}.cls-51{fill:url(#linear-gradient-34);}.cls-52{fill:url(#radial-gradient-13);}.cls-53{fill:url(#linear-gradient-35);}.cls-54{fill:url(#radial-gradient-14);}.cls-55{fill:url(#linear-gradient-36);}.cls-56{fill:url(#radial-gradient-15);}.cls-57{fill:url(#linear-gradient-37);}.cls-58{fill:url(#radial-gradient-16);}.cls-59{fill:url(#linear-gradient-38);}.cls-60{fill:url(#radial-gradient-17);}.cls-61{fill:url(#linear-gradient-39);}.cls-62{fill:url(#radial-gradient-18);}.cls-63{fill:url(#linear-gradient-40);}.cls-64{fill:url(#radial-gradient-19);}.cls-65{fill:url(#linear-gradient-41);}.cls-66{fill:url(#radial-gradient-20);}.cls-67{fill:url(#linear-gradient-42);}.cls-68{fill:url(#radial-gradient-21);}.cls-69{fill:url(#linear-gradient-43);}.cls-70{fill:url(#radial-gradient-22);}.cls-71{fill:url(#linear-gradient-44);}.cls-72{fill:url(#linear-gradient-45);}.cls-73{fill:url(#linear-gradient-46);}</style><clipPath id="clip-path" transform="translate(385.77 367.53)"><rect class="cls-1" x="2" y="-1" width="1917" height="1082"/></clipPath><linearGradient id="linear-gradient" x1="2239.81" y1="365.87" x2="297.95" y2="1550.67" gradientUnits="userSpaceOnUse"><stop offset="0" stop-color="#c1272d"/><stop offset="0.13" stop-color="#a9242b"/><stop offset="0.55" stop-color="#5d1923"/><stop offset="0.85" stop-color="#2d131e"/><stop offset="1" stop-color="#1b101c"/></linearGradient><linearGradient id="linear-gradient-2" x1="377.65" y1="239.68" x2="242.91" y2="665.85" gradientTransform="translate(303.1 -96.07) rotate(33.67)" gradientUnits="userSpaceOnUse"><stop offset="0" stop-color="#fff"/><stop offset="0.01" stop-color="#fafafa" stop-opacity="0.98"/><stop offset="0.18" stop-color="silver" stop-opacity="0.72"/><stop offset="0.34" stop-color="#8d8d8d" stop-opacity="0.5"/><stop offset="0.49" stop-color="#646464" stop-opacity="0.32"/><stop offset="0.64" stop-color="#444" stop-opacity="0.18"/><stop offset="0.78" stop-color="#2d2d2d" stop-opacity="0.08"/><stop offset="0.9" stop-color="#1f1f1f" stop-opacity="0.02"/><stop offset="1" stop-color="#1a1a1a" stop-opacity="0"/></linearGradient><linearGradient id="linear-gradient-3" x1="-50.35" y1="99.68" x2="-185.09" y2="525.85" gradientTransform="translate(153.66 117.75) rotate(33.67)" xlink:href="#linear-gradient-2"/><linearGradient id="linear-gradient-4" x1="425.65" y1="-54.32" x2="290.91" y2="371.85" gradientTransform="translate(148.15 -172.01) rotate(33.67)" xlink:href="#linear-gradient-2"/><linearGradient id="linear-gradient-5" x1="448.23" y1="609.29" x2="355.45" y2="902.74" gradientTransform="translate(486.61 -95.95) rotate(33.67)" xlink:href="#linear-gradient-2"/><linearGradient id="linear-gradient-6" x1="981.23" y1="908.29" x2="888.45" y2="1201.74" gradientTransform="translate(741.83 -341.31) rotate(33.67)" xlink:href="#linear-gradient-2"/><linearGradient id="linear-gradient-7" x1="719.68" y1="255.11" x2="586.73" y2="675.62" gradientTransform="translate(367.63 -284.1) rotate(33.67)" xlink:href="#linear-gradient-2"/><linearGradient id="linear-gradient-8" x1="974.25" y1="324.87" x2="829.87" y2="781.51" gradientTransform="translate(458.09 -407.34) rotate(33.67)" xlink:href="#linear-gradient-2"/><linearGradient id="linear-gradient-9" x1="1373.25" y1="53.87" x2="1228.87" y2="510.51" gradientTransform="translate(374.78 -674.05) rotate(33.67)" xlink:href="#linear-gradient-2"/><linearGradient id="linear-gradient-10" x1="1439.25" y1="800.87" x2="1294.87" y2="1257.51" gradientTransform="translate(800.04 -585.3) rotate(33.67)" xlink:href="#linear-gradient-2"/><linearGradient id="linear-gradient-11" x1="1644.25" y1="-26.13" x2="1499.87" y2="430.51" gradientTransform="translate(375.89 -837.73) rotate(33.67)" xlink:href="#linear-gradient-2"/><pattern id="_10_dpi_20_2" data-name="10 dpi 20% 2" x="385.77" y="367.53" width="28.8" height="28.8" patternUnits="userSpaceOnUse" viewBox="0 0 28.8 28.8"><rect class="cls-1" width="28.8" height="28.8"/><path class="cls-2" d="M28.8,30.24a1.44,1.44,0,1,0-1.44-1.44A1.44,1.44,0,0,0,28.8,30.24Z"/><path class="cls-2" d="M14.4,30.24A1.44,1.44,0,1,0,13,28.8,1.44,1.44,0,0,0,14.4,30.24Z"/><path class="cls-2" d="M28.8,15.84a1.44,1.44,0,1,0-1.44-1.44A1.44,1.44,0,0,0,28.8,15.84Z"/><path class="cls-2" d="M14.4,15.84A1.44,1.44,0,1,0,13,14.4,1.44,1.44,0,0,0,14.4,15.84Z"/><path class="cls-2" d="M7.2,23A1.44,1.44,0,1,0,5.76,21.6,1.44,1.44,0,0,0,7.2,23Z"/><path class="cls-2" d="M21.6,23a1.44,1.44,0,1,0-1.44-1.44A1.44,1.44,0,0,0,21.6,23Z"/><path class="cls-2" d="M7.2,8.64A1.44,1.44,0,1,0,5.76,7.2,1.44,1.44,0,0,0,7.2,8.64Z"/><path class="cls-2" d="M21.6,8.64A1.44,1.44,0,1,0,20.16,7.2,1.44,1.44,0,0,0,21.6,8.64Z"/><path class="cls-2" d="M0,30.24A1.44,1.44,0,0,0,1.44,28.8,1.45,1.45,0,0,0,0,27.36,1.44,1.44,0,0,0-1.44,28.8,1.43,1.43,0,0,0,0,30.24Z"/><path class="cls-2" d="M0,15.84A1.44,1.44,0,0,0,1.44,14.4,1.45,1.45,0,0,0,0,13,1.44,1.44,0,0,0-1.44,14.4,1.43,1.43,0,0,0,0,15.84Z"/><path class="cls-2" d="M28.8,1.44A1.45,1.45,0,0,0,30.24,0,1.44,1.44,0,0,0,28.8-1.44,1.43,1.43,0,0,0,27.36,0,1.44,1.44,0,0,0,28.8,1.44Z"/><path class="cls-2" d="M14.4,1.44A1.45,1.45,0,0,0,15.84,0,1.44,1.44,0,0,0,14.4-1.44,1.43,1.43,0,0,0,13,0,1.44,1.44,0,0,0,14.4,1.44Z"/><path class="cls-2" d="M0,1.44A1.45,1.45,0,0,0,1.44,0,1.44,1.44,0,0,0,0-1.44,1.43,1.43,0,0,0-1.44,0,1.44,1.44,0,0,0,0,1.44Z"/></pattern><linearGradient id="linear-gradient-12" x1="92.65" y1="830.68" x2="-42.09" y2="1256.85" gradientTransform="translate(582.97 161.12) rotate(33.67)" xlink:href="#linear-gradient-2"/><radialGradient id="radial-gradient" cx="1085.77" cy="758.29" r="425.35" gradientTransform="matrix(0.86, -0.51, 0.18, 0.3, 401.43, 1451.23)" gradientUnits="userSpaceOnUse"><stop offset="0"/><stop offset="0.85" stop-color="#fff" stop-opacity="0.8"/></radialGradient><linearGradient id="linear-gradient-13" x1="386.33" y1="1083.87" x2="1130.3" y2="689.43" gradientTransform="translate(355.46 437.05) rotate(-3.85)" gradientUnits="userSpaceOnUse"><stop offset="0.01" stop-color="#5b1a1e"/><stop offset="1" stop-color="#c1272d"/></linearGradient><linearGradient id="linear-gradient-14" x1="1822.74" y1="773.39" x2="836.13" y2="1566.1" gradientTransform="matrix(1, 0, 0, 1, 0, 0)" xlink:href="#linear-gradient-2"/><linearGradient id="linear-gradient-15" x1="552.46" y1="930.62" x2="1318.27" y2="930.62" gradientTransform="matrix(1, 0, 0, 1, 0, 0)" xlink:href="#linear-gradient-2"/><radialGradient id="radial-gradient-2" cx="688" cy="856.32" r="267.25" gradientTransform="matrix(0.86, -0.51, 0.18, 0.3, 327.53, 1315.72)" xlink:href="#radial-gradient"/><linearGradient id="linear-gradient-16" x1="235.98" y1="1035.39" x2="703.43" y2="787.56" xlink:href="#linear-gradient-13"/><linearGradient id="linear-gradient-17" x1="744.43" y1="1356.18" x2="1391.72" y2="998.32" gradientUnits="userSpaceOnUse"><stop offset="0" stop-color="#811a1e"/><stop offset="1" stop-color="#ff312d"/></linearGradient><radialGradient id="radial-gradient-3" cx="593.5" cy="964.59" r="205.17" gradientUnits="userSpaceOnUse"><stop offset="0" stop-color="#fff"/><stop offset="1" stop-color="#1a1a1a"/></radialGradient><radialGradient id="radial-gradient-4" cx="274" cy="297.32" r="267.25" gradientTransform="matrix(0.86, -0.51, 0.18, 0.3, 370.5, 714.73)" xlink:href="#radial-gradient"/><linearGradient id="linear-gradient-18" x1="-139.55" y1="449.85" x2="327.9" y2="202.02" xlink:href="#linear-gradient-13"/><linearGradient id="linear-gradient-19" x1="330.43" y1="797.18" x2="977.72" y2="439.32" xlink:href="#linear-gradient-17"/><linearGradient id="linear-gradient-20" x1="-61.09" y1="405.59" x2="420.08" y2="405.59" gradientTransform="matrix(1, 0, 0, 1, 0, 0)" xlink:href="#linear-gradient-2"/><radialGradient id="radial-gradient-5" cx="459" cy="-70.68" r="267.25" gradientTransform="matrix(0.86, -0.51, 0.18, 0.3, 463.35, 553.42)" xlink:href="#radial-gradient"/><linearGradient id="linear-gradient-21" x1="69.74" y1="95.1" x2="537.19" y2="-152.73" xlink:href="#linear-gradient-13"/><linearGradient id="linear-gradient-22" x1="515.43" y1="429.18" x2="1162.72" y2="71.32" xlink:href="#linear-gradient-17"/><radialGradient id="radial-gradient-6" cx="364.5" cy="37.59" r="205.17" xlink:href="#radial-gradient-3"/><radialGradient id="radial-gradient-7" cx="1018.41" cy="-53.05" r="352.66" gradientTransform="matrix(0.86, -0.51, 0.18, 0.3, 539.09, 852.19)" xlink:href="#radial-gradient"/><linearGradient id="linear-gradient-23" x1="489.96" y1="214.86" x2="1106.81" y2="-112.17" xlink:href="#linear-gradient-13"/><linearGradient id="linear-gradient-24" x1="969.59" y1="489.11" x2="1823.74" y2="16.88" xlink:href="#linear-gradient-17"/><linearGradient id="linear-gradient-25" x1="576.23" y1="89.84" x2="1211.18" y2="89.84" gradientTransform="matrix(1, 0, 0, 1, 0, 0)" xlink:href="#linear-gradient-2"/><radialGradient id="radial-gradient-8" cx="1577.41" cy="699.95" r="352.66" gradientTransform="matrix(0.86, -0.51, 0.18, 0.3, 481.38, 1662.42)" xlink:href="#radial-gradient"/><linearGradient id="linear-gradient-26" x1="997.14" y1="1003.7" x2="1613.98" y2="676.67" xlink:href="#linear-gradient-13"/><radialGradient id="radial-gradient-9" cx="1849.11" cy="1003.14" r="272.43" xlink:href="#radial-gradient-3"/><linearGradient id="linear-gradient-27" x1="1135.23" y1="842.84" x2="1770.18" y2="842.84" gradientTransform="matrix(1, 0, 0, 1, 0, 0)" xlink:href="#linear-gradient-2"/><radialGradient id="radial-gradient-10" cx="1871.93" cy="903.77" r="242.56" gradientTransform="matrix(0.86, -0.51, 0.18, 0.3, 485.97, 1955.07)" xlink:href="#radial-gradient"/><linearGradient id="linear-gradient-28" x1="1453.57" y1="1143.56" x2="1877.84" y2="918.63" xlink:href="#linear-gradient-13"/><linearGradient id="linear-gradient-29" x1="1958.78" y1="1391.41" x2="2546.27" y2="1066.61" xlink:href="#linear-gradient-17"/><linearGradient id="linear-gradient-30" x1="1567.79" y1="1002.05" x2="2004.51" y2="1002.05" gradientTransform="matrix(1, 0, 0, 1, 0, 0)" xlink:href="#linear-gradient-2"/><radialGradient id="radial-gradient-11" cx="1815.86" cy="270.39" r="247.74" gradientTransform="matrix(0.86, -0.51, 0.18, 0.3, 592.94, 1485.64)" xlink:href="#radial-gradient"/><linearGradient id="linear-gradient-31" x1="1431.88" y1="511.76" x2="1865.2" y2="282.02" xlink:href="#linear-gradient-13"/><linearGradient id="linear-gradient-32" x1="1897.08" y1="592.72" x2="2345.91" y2="592.72" gradientTransform="matrix(1, 0, 0, 1, 0, 0)" xlink:href="#linear-gradient-2"/><linearGradient id="linear-gradient-33" x1="1505.24" y1="370.76" x2="1951.27" y2="370.76" gradientTransform="matrix(1, 0, 0, 1, 0, 0)" xlink:href="#linear-gradient-2"/><radialGradient id="radial-gradient-12" cx="2815.77" cy="1250.3" r="251.3" gradientTransform="matrix(-0.89, 0.53, -0.16, -0.36, 3766.59, -669.3)" xlink:href="#radial-gradient"/><linearGradient id="linear-gradient-34" x1="3058.39" y1="971.05" x2="2216.48" y2="1794.2" gradientTransform="translate(3818.67 1781.11) rotate(-179.06)" gradientUnits="userSpaceOnUse"><stop offset="0" stop-color="#eb292f"/><stop offset="0.09" stop-color="#e9272d" stop-opacity="0.95"/><stop offset="0.26" stop-color="#e22126" stop-opacity="0.81"/><stop offset="0.49" stop-color="#d8181c" stop-opacity="0.58"/><stop offset="0.76" stop-color="#cb0c0e" stop-opacity="0.28"/><stop offset="0.99" stop-color="#be0101" stop-opacity="0"/></linearGradient><radialGradient id="radial-gradient-13" cx="3015.3" cy="481.23" r="183.73" gradientTransform="matrix(-0.89, 0.53, -0.16, -0.36, 3571.31, -187.14)" xlink:href="#radial-gradient"/><linearGradient id="linear-gradient-35" x1="3219.24" y1="206.72" x2="2603.69" y2="808.55" xlink:href="#linear-gradient-34"/><radialGradient id="radial-gradient-14" cx="2600.11" cy="561.73" r="237.41" gradientTransform="matrix(-0.89, 0.53, -0.16, -0.36, 3634.29, -5.13)" xlink:href="#radial-gradient"/><linearGradient id="linear-gradient-36" x1="2859.33" y1="200.68" x2="2063.93" y2="978.35" xlink:href="#linear-gradient-34"/><radialGradient id="radial-gradient-15" cx="2415.64" cy="624.25" r="193.7" gradientTransform="matrix(-0.89, 0.53, -0.16, -0.36, 3668.31, 54.86)" xlink:href="#radial-gradient"/><linearGradient id="linear-gradient-37" x1="2624.39" y1="330.1" x2="1975.46" y2="964.56" xlink:href="#linear-gradient-34"/><radialGradient id="radial-gradient-16" cx="2197.64" cy="608.36" r="232.3" gradientTransform="matrix(-0.89, 0.53, -0.16, -0.36, 3688.24, 195.79)" xlink:href="#radial-gradient"/><linearGradient id="linear-gradient-38" x1="2449.46" y1="245.15" x2="1671.19" y2="1006.06" xlink:href="#linear-gradient-34"/><radialGradient id="radial-gradient-17" cx="1892.76" cy="1060.34" r="232.3" gradientTransform="matrix(-0.89, 0.53, -0.16, -0.36, 3823.24, 23.05)" xlink:href="#radial-gradient"/><linearGradient id="linear-gradient-39" x1="2124.09" y1="746.53" x2="1345.83" y2="1507.44" xlink:href="#linear-gradient-34"/><radialGradient id="radial-gradient-18" cx="2411.17" cy="1188.93" r="232.3" gradientTransform="matrix(-1.04, 0.62, -0.19, -0.41, 4239.42, -551.08)" xlink:href="#radial-gradient"/><linearGradient id="linear-gradient-40" x1="2629.55" y1="891.15" x2="1724.59" y2="1775.93" xlink:href="#linear-gradient-34"/><radialGradient id="radial-gradient-19" cx="3497.67" cy="645.61" r="183.73" gradientTransform="matrix(-0.89, 0.53, -0.16, -0.36, 3556.42, -599.73)" xlink:href="#radial-gradient"/><linearGradient id="linear-gradient-41" x1="3693.67" y1="413" x2="3078.12" y2="1014.83" xlink:href="#linear-gradient-34"/><radialGradient id="radial-gradient-20" cx="3499.33" cy="935.24" r="183.73" gradientTransform="matrix(-0.89, 0.53, -0.16, -0.36, 3621.68, -826.6)" xlink:href="#radial-gradient"/><linearGradient id="linear-gradient-42" x1="3682.05" y1="742.23" x2="3066.5" y2="1344.06" xlink:href="#linear-gradient-34"/><radialGradient id="radial-gradient-21" cx="3465.99" cy="1256.55" r="183.73" gradientTransform="matrix(-0.89, 0.53, -0.16, -0.36, 3697.87, -1057.53)" xlink:href="#radial-gradient"/><linearGradient id="linear-gradient-43" x1="3633.99" y1="1106.07" x2="3018.44" y2="1707.9" xlink:href="#linear-gradient-34"/><radialGradient id="radial-gradient-22" cx="200" cy="668.32" r="267.25" gradientTransform="matrix(0.86, -0.51, 0.18, 0.3, 292.77, 934.98)" xlink:href="#radial-gradient"/><linearGradient id="linear-gradient-44" x1="-238.3" y1="815.04" x2="229.15" y2="567.21" xlink:href="#linear-gradient-13"/><linearGradient id="linear-gradient-45" x1="256.43" y1="1168.18" x2="903.72" y2="810.32" xlink:href="#linear-gradient-17"/><linearGradient id="linear-gradient-46" x1="-135.09" y1="776.59" x2="346.08" y2="776.59" gradientTransform="matrix(1, 0, 0, 1, 0, 0)" xlink:href="#linear-gradient-2"/></defs><g class="cls-3"><g id="Layer_2" data-name="Layer 2"><g class="cls-4"><rect class="cls-5" x="390.77" y="372.53" width="1916" height="1074"/><rect class="cls-6" x="66.78" y="401.26" width="487" height="103" transform="translate(186.79 615.54) rotate(-33.67)"/><rect class="cls-7" x="-361.22" y="261.26" width="487" height="103" transform="translate(192.6 354.73) rotate(-33.67)"/><rect class="cls-8" x="114.78" y="107.26" width="487" height="103" transform="translate(357.86 592.82) rotate(-33.67)"/><rect class="cls-9" x="234.66" y="720.66" width="334.37" height="70.72" transform="translate(34.01 717.19) rotate(-33.67)"/><rect class="cls-10" x="767.66" y="1019.66" width="334.37" height="70.72" transform="translate(-42.34 1062.89) rotate(-33.67)"/><rect class="cls-11" x="412.96" y="414.55" width="480.49" height="101.62" transform="translate(237.35 807.79) rotate(-33.67)"/><rect class="cls-12" x="641.04" y="497.98" width="522.04" height="110.41" transform="translate(230.4 960.51) rotate(-33.67)"/><rect class="cls-13" x="1040.04" y="226.98" width="522.04" height="110.41" transform="translate(447.62 1136.27) rotate(-33.67)"/><rect class="cls-14" x="1106.04" y="973.98" width="522.04" height="110.41" transform="translate(44.5 1298.21) rotate(-33.67)"/><rect class="cls-15" x="1311.04" y="146.98" width="522.04" height="110.41" transform="translate(537.45 1273.11) rotate(-33.67)"/><polygon class="cls-16" points="434.44 500.05 0 789.5 61.22 881.38 495.66 591.93 434.44 500.05"/><polygon class="cls-16" points="582.44 1233.05 148 1522.5 209.22 1614.38 643.66 1324.93 582.44 1233.05"/><polygon class="cls-16" points="908.44 1005.05 631.24 1189.74 668.2 1245.22 945.41 1060.53 908.44 1005.05"/><polygon class="cls-16" points="872.44 645.05 601.49 825.57 655.1 906.03 926.05 725.5 872.44 645.05"/><polygon class="cls-16" points="1207.44 661.05 936.49 841.57 990.1 922.03 1261.05 741.5 1207.44 661.05"/><polygon class="cls-16" points="1472.44 734.05 1201.49 914.57 1259.05 1000.95 1529.99 820.43 1472.44 734.05"/><polygon class="cls-16" points="1870.44 465.05 1599.49 645.57 1657.05 731.95 1927.99 551.43 1870.44 465.05"/><polygon class="cls-16" points="2145.44 382.05 1874.49 562.57 1932.05 648.95 2202.99 468.43 2145.44 382.05"/><polygon class="cls-16" points="1439.7 1305.93 1168.75 1486.45 1203.52 1538.64 1474.47 1358.11 1439.7 1305.93"/><polygon class="cls-16" points="1937.7 1210.93 1607.2 1431.13 1665.65 1518.86 1996.15 1298.66 1937.7 1210.93"/><rect class="cls-17" x="-218.22" y="992.26" width="487" height="103" transform="translate(-188.72 556.68) rotate(-33.67)"/><polygon id="panal20" class="cls-18" points="903.3 1423.78 1956.34 746.53 1982.43 1085.15 901.77 1650.53 903.3 1423.78"/><polygon id="panal19" class="cls-19" points="947.95 1309.83 932.04 1557.98 1699.97 1042.92 1715.88 794.77 947.95 1309.83"/><g id="panal"><polygon class="cls-20" points="950.43 1307.97 948.66 1305.33 1719.27 788.47 1703.15 1039.84 1699.97 1039.63 1715.68 794.71 950.43 1307.97"/></g><g id="panal-2" data-name="panal"><path class="cls-21" d="M552.46,1188.76l765.81-513.64-1.77-2.64-763,511.76C553.16,1185.75,552.82,1187.25,552.46,1188.76Z" transform="translate(385.77 367.53)"/></g><g id="panal18"><polygon class="cls-22" points="716.73 1411.06 1378.37 985.53 1394.77 1198.29 715.77 1553.53 716.73 1411.06"/><polygon class="cls-23" points="744.79 1339.46 734.79 1495.38 1217.3 1171.76 1227.29 1015.84 744.79 1339.46"/><polygon class="cls-24" points="746.34 1338.29 745.23 1336.63 1229.42 1011.88 1219.29 1169.82 1217.3 1169.69 1227.16 1015.8 746.34 1338.29"/><path class="cls-25" d="M352.91,1126.79,834.08,804.06,833,802.4,353.56,1123.94C353.35,1124.89,353.14,1125.84,352.91,1126.79Z" transform="translate(385.77 367.53)"/></g><g id="panal17"><polygon class="cls-26" points="302.73 852.06 964.37 426.53 980.77 639.29 301.77 994.53 302.73 852.06"/><polygon class="cls-27" points="330.79 780.46 320.79 936.38 803.29 612.76 813.29 456.84 330.79 780.46"/><polygon class="cls-28" points="332.34 779.29 331.23 777.63 815.42 452.88 805.29 610.82 803.3 610.69 813.16 456.8 332.34 779.29"/><path class="cls-29" d="M-61.09,567.79,420.08,245.06,419,243.4-60.44,564.94C-60.65,565.89-60.86,566.84-61.09,567.79Z" transform="translate(385.77 367.53)"/></g><g id="panal16"><polygon class="cls-30" points="487.73 484.06 1149.37 58.53 1165.77 271.29 486.77 626.53 487.73 484.06"/><polygon class="cls-31" points="515.79 412.46 505.79 568.38 988.29 244.76 998.29 88.84 515.79 412.46"/><polygon class="cls-32" points="517.34 411.29 516.23 409.63 1000.42 84.88 990.29 242.82 988.3 242.69 998.16 88.8 517.34 411.29"/><path class="cls-33" d="M123.91,199.79,605.08-122.94,604-124.6,124.56,196.94C124.35,197.89,124.14,198.84,123.91,199.79Z" transform="translate(385.77 367.53)"/></g><g id="panal15"><polygon class="cls-34" points="933.04 561.53 1806.13 0 1827.77 280.76 931.77 749.53 933.04 561.53"/><polygon class="cls-35" points="970.06 467.05 956.87 672.8 1593.58 245.75 1606.77 40 970.06 467.05"/><polygon class="cls-36" points="972.12 465.5 970.65 463.31 1609.58 34.77 1596.21 243.19 1593.58 243.02 1606.6 39.95 972.12 465.5"/><path class="cls-37" d="M576.23,303.87l635-425.87-1.47-2.19L577.09,300.11C576.81,301.36,576.53,302.62,576.23,303.87Z" transform="translate(385.77 367.53)"/></g><g id="panal14"><polygon class="cls-38" points="1492.04 1314.53 2365.13 753 2386.77 1033.76 1490.77 1502.53 1492.04 1314.53"/><polygon class="cls-39" points="1529.06 1220.05 1515.87 1425.8 2152.58 998.75 2165.77 793 1529.06 1220.05"/><polygon class="cls-40" points="1531.12 1218.5 1529.65 1216.31 2168.58 787.77 2155.21 996.19 2152.58 996.02 2165.6 792.95 1531.12 1218.5"/><path class="cls-41" d="M1135.23,1056.87l635-425.87-1.47-2.19-632.62,424.3C1135.81,1054.36,1135.53,1055.62,1135.23,1056.87Z" transform="translate(385.77 367.53)"/></g><g id="panal13"><polygon class="cls-42" points="1933.64 1441.22 2534.16 1055 2549.04 1248.11 1932.77 1570.53 1933.64 1441.22"/><polygon class="cls-43" points="1959.11 1376.24 1950.03 1517.75 2387.96 1224.03 2397.04 1082.51 1959.11 1376.24"/><polygon class="cls-44" points="1960.52 1375.17 1959.51 1373.67 2398.97 1078.92 2389.78 1222.27 2387.96 1222.15 2396.92 1082.48 1960.52 1375.17"/><path class="cls-45" d="M1567.79,1149.26l436.72-292.91-1-1.51-435.12,291.84C1568.19,1147.54,1568,1148.4,1567.79,1149.26Z" transform="translate(385.77 367.53)"/></g><g id="panal12"><polygon class="cls-46" points="1870.66 811.46 2483.99 417 2499.19 614.23 1869.77 943.53 1870.66 811.46"/><polygon class="cls-47" points="1896.67 745.09 1887.4 889.63 2334.67 589.63 2343.94 445.1 1896.67 745.09"/><polygon class="cls-48" points="1898.11 744.01 1897.08 742.47 2345.91 441.43 2336.53 587.84 2334.68 587.72 2343.82 445.06 1898.11 744.01"/><path class="cls-49" d="M1505.24,521.11l446-299.16-1-1.54-444.4,298.07C1505.64,519.35,1505.45,520.23,1505.24,521.11Z" transform="translate(385.77 367.53)"/></g><g id="panal11"><polygon class="cls-50" points="1403.69 205.67 756.77 624.81 754.27 396.74 1413.23 53.59 1403.69 205.67"/><polygon class="cls-51" points="1430.3 277.8 1442.1 131.36 983.48 428.21 971.69 574.64 1430.3 277.8"/></g><g id="panal10"><polygon class="cls-52" points="1061.76 1116.36 588.77 1422.81 586.94 1256.06 1068.73 1005.17 1061.76 1116.36"/><polygon class="cls-53" points="1081.21 1169.1 1089.84 1062.03 754.53 1279.07 745.9 1386.13 1081.21 1169.1"/></g><g id="panal9"><polygon class="cls-54" points="1555.49 1009.83 944.3 1405.81 941.94 1190.34 1564.5 866.15 1555.49 1009.83"/><polygon class="cls-55" points="1580.63 1077.97 1591.77 939.62 1158.49 1220.07 1147.35 1358.42 1580.63 1077.97"/></g><polygon id="panal-3" data-name="panal" class="cls-56" points="1683.41 980.75 1184.77 1303.81 1182.84 1128.02 1690.76 863.53 1683.41 980.75"/><polygon id="panal8" class="cls-57" points="1703.92 1036.34 1713.01 923.47 1359.52 1152.27 1350.42 1265.14 1703.92 1036.34"/><g id="panal7"><polygon class="cls-58" points="1953.27 983.36 1355.25 1370.81 1352.94 1159.98 1962.09 842.78 1953.27 983.36"/><polygon class="cls-59" points="1977.87 1050.03 1988.77 914.66 1564.83 1189.07 1553.92 1324.44 1977.87 1050.03"/></g><g id="panal6"><polygon class="cls-60" points="2286.79 487.36 1688.77 874.81 1686.46 663.99 2295.6 346.78 2286.79 487.36"/><polygon class="cls-61" points="2311.38 554.03 2322.29 418.67 1898.34 693.07 1887.44 828.44 2311.38 554.03"/></g><g id="panal5"><polygon class="cls-62" points="1879.27 252 1180.16 699.81 1177.46 456.14 1889.58 89.53 1879.27 252"/><polygon class="cls-63" points="1908.02 329.06 1920.77 172.61 1425.16 489.76 1412.41 646.21 1908.02 329.06"/></g><g id="panal4"><polygon class="cls-64" points="590.76 902.36 117.77 1208.81 115.94 1042.06 597.73 791.17 590.76 902.36"/><polygon class="cls-65" points="610.21 955.1 618.84 848.03 283.53 1065.07 274.9 1172.13 610.21 955.1"/></g><g id="panal3"><polygon class="cls-66" points="607.76 573.36 134.77 879.81 132.94 713.06 614.73 462.17 607.76 573.36"/><polygon class="cls-67" points="627.21 626.1 635.84 519.03 300.53 736.07 291.9 843.13 627.21 626.1"/></g><g id="panal2"><polygon class="cls-68" points="661.76 210.36 188.77 516.81 186.94 350.06 668.73 99.17 661.76 210.36"/><polygon class="cls-69" points="681.21 263.1 689.84 156.03 354.53 373.07 345.9 480.13 681.21 263.1"/></g><g id="panal1"><polygon class="cls-70" points="228.73 1223.06 890.37 797.53 906.77 1010.29 227.77 1365.53 228.73 1223.06"/><polygon class="cls-71" points="256.79 1151.46 246.79 1307.38 729.29 983.76 739.29 827.84 256.79 1151.46"/><polygon class="cls-72" points="258.34 1150.29 257.23 1148.63 741.42 823.88 731.29 981.82 729.3 981.69 739.16 827.8 258.34 1150.29"/><path class="cls-73" d="M-135.09,938.79,346.08,616.06,345,614.4-134.44,935.94C-134.65,936.89-134.86,937.84-135.09,938.79Z" transform="translate(385.77 367.53)"/></g><rect class="cls-1" x="388.77" y="372.53" width="1916" height="1074"/></g></g></g></svg>